<svg xmlns="http://www.w3.org/2000/svg" viewBox="0 0 640 400" fill="none" role="img" aria-label="EternalForge simulation preview">
  <rect width="640" height="400" fill="#0a0c10"/>
  <defs>
    <pattern id="grid" width="32" height="32" patternUnits="userSpaceOnUse">
      <path d="M32 0H0V32" stroke="rgba(255,255,255,0.04)" fill="none"/>
    </pattern>
    <radialGradient id="glow" cx="50%" cy="50%" r="50%">
      <stop offset="0%" stop-color="rgba(199,255,66,0.15)"/>
      <stop offset="100%" stop-color="rgba(199,255,66,0)"/>
    </radialGradient>
  </defs>
  <rect width="640" height="400" fill="url(#grid)"/>
  <ellipse cx="320" cy="200" rx="180" ry="120" fill="url(#glow)"/>
  <circle cx="220" cy="160" r="6" fill="#c7ff42" opacity="0.9"/>
  <circle cx="280" cy="140" r="4" fill="#d4ff5c" opacity="0.7"/>
  <circle cx="360" cy="180" r="8" fill="#c7ff42" opacity="0.85"/>
  <circle cx="420" cy="150" r="5" fill="#a8d636" opacity="0.75"/>
  <circle cx="300" cy="220" r="7" fill="#c7ff42" opacity="0.8"/>
  <circle cx="380" cy="240" r="4" fill="#d4ff5c" opacity="0.65"/>
  <circle cx="460" cy="210" r="6" fill="#c7ff42" opacity="0.7"/>
  <circle cx="180" cy="230" r="5" fill="#a8d636" opacity="0.6"/>
  <path d="M220 160 Q280 120 360 180 T460 210" stroke="rgba(199,255,66,0.25)" stroke-width="1" fill="none"/>
  <path d="M280 140 Q320 200 380 240" stroke="rgba(199,255,66,0.18)" stroke-width="1" fill="none"/>
  <rect x="24" y="24" width="592" height="28" rx="4" fill="rgba(20,23,28,0.9)" stroke="rgba(255,255,255,0.08)"/>
  <text x="40" y="43" fill="#c2c8d4" font-family="ui-monospace,monospace" font-size="11">seed: 0x4f2a · tick 18420 · workers: 2</text>
  <rect x="24" y="348" width="120" height="28" rx="4" fill="rgba(199,255,66,0.1)" stroke="rgba(199,255,66,0.3)"/>
  <text x="40" y="367" fill="#c7ff42" font-family="system-ui,sans-serif" font-size="10" font-weight="600">Canvas sim</text>
</svg>
