<svg xmlns="http://www.w3.org/2000/svg" viewBox="0 0 1680 720" fill="none">
  <defs>
    <linearGradient id="bg" x1="0" y1="0" x2="1" y2="1">
      <stop offset="0%" stop-color="#0e1014"/>
      <stop offset="100%" stop-color="#14171c"/>
    </linearGradient>
    <linearGradient id="forge" x1="0" y1="0" x2="1" y2="0">
      <stop offset="0%" stop-color="#c7ff42" stop-opacity="0.7"/>
      <stop offset="50%" stop-color="#6b7280" stop-opacity="0.5"/>
      <stop offset="100%" stop-color="#c7ff42" stop-opacity="0.35"/>
    </linearGradient>
    <filter id="glow" x="-20%" y="-20%" width="140%" height="140%">
      <feGaussianBlur stdDeviation="8" result="b"/>
      <feMerge><feMergeNode in="b"/><feMergeNode in="SourceGraphic"/></feMerge>
    </filter>
  </defs>
  <rect width="1680" height="720" fill="url(#bg)"/>
  <rect x="1" y="1" width="1678" height="718" stroke="url(#forge)" stroke-width="2" fill="none"/>
  <!-- top bar -->
  <rect x="48" y="40" width="1584" height="52" rx="6" fill="#1c2028" stroke="rgba(255,255,255,0.08)"/>
  <rect x="68" y="58" width="120" height="16" rx="2" fill="#c7ff42" opacity="0.85"/>
  <text x="68" y="52" font-family="system-ui,sans-serif" font-size="11" fill="#8b93a7" letter-spacing="0.12em">AUDITPACK</text>
  <rect x="1320" y="56" width="88" height="20" rx="4" fill="rgba(199,255,66,0.12)" stroke="rgba(199,255,66,0.35)"/>
  <text x="1336" y="70" font-family="ui-monospace,monospace" font-size="10" fill="#c7ff42">Export</text>
  <!-- sidebar -->
  <rect x="48" y="112" width="240" height="568" rx="8" fill="#14171c" stroke="rgba(255,255,255,0.06)"/>
  <rect x="72" y="140" width="160" height="10" rx="2" fill="#3a4150"/>
  <rect x="72" y="168" width="192" height="8" rx="2" fill="#252a34"/>
  <rect x="72" y="188" width="176" height="8" rx="2" fill="#252a34"/>
  <rect x="72" y="228" width="192" height="36" rx="4" fill="rgba(199,255,66,0.08)" stroke="rgba(199,255,66,0.3)"/>
  <text x="84" y="250" font-family="ui-monospace,monospace" font-size="10" fill="#c7ff42">Gap analysis</text>
  <!-- main panel -->
  <rect x="312" y="112" width="1320" height="568" rx="8" fill="#1c2028" stroke="rgba(255,255,255,0.06)"/>
  <text x="336" y="152" font-family="system-ui,sans-serif" font-size="28" font-weight="700" fill="#f4f5f7" letter-spacing="-0.02em">Compliance OS</text>
  <text x="336" y="182" font-family="ui-monospace,monospace" font-size="12" fill="#8b93a7">ISO readiness · multi-tenant · fail-closed RAG</text>
  <!-- score cards -->
  <g filter="url(#glow)">
    <rect x="336" y="220" width="200" height="120" rx="8" fill="#14171c" stroke="rgba(199,255,66,0.25)"/>
    <text x="356" y="260" font-family="system-ui,sans-serif" font-size="48" font-weight="800" fill="#c7ff42">87</text>
    <text x="356" y="288" font-family="ui-monospace,monospace" font-size="11" fill="#8b93a7">READINESS SCORE</text>
    <rect x="556" y="220" width="200" height="120" rx="8" fill="#14171c" stroke="rgba(255,255,255,0.08)"/>
    <text x="576" y="260" font-family="system-ui,sans-serif" font-size="48" font-weight="800" fill="#f4f5f7">4</text>
    <text x="576" y="288" font-family="ui-monospace,monospace" font-size="11" fill="#8b93a7">ISO STANDARDS</text>
    <rect x="776" y="220" width="200" height="120" rx="8" fill="#14171c" stroke="rgba(255,255,255,0.08)"/>
    <text x="796" y="260" font-family="system-ui,sans-serif" font-size="48" font-weight="800" fill="#f4f5f7">13</text>
    <text x="796" y="288" font-family="ui-monospace,monospace" font-size="11" fill="#8b93a7">VALIDATION CHECKS</text>
  </g>
  <!-- chart area -->
  <rect x="336" y="368" width="820" height="280" rx="8" fill="#14171c" stroke="rgba(255,255,255,0.06)"/>
  <polyline points="360,600 420,520 480,540 540,460 600,480 660,400 720,420 780,360 840,380 900,320 960,340 1020,280 1080,300 1140,260" stroke="#c7ff42" stroke-width="2.5" fill="none" opacity="0.9"/>
  <rect x="1180" y="368" width="428" height="280" rx="8" fill="#14171c" stroke="rgba(255,255,255,0.06)"/>
  <rect x="1204" y="392" width="380" height="12" rx="2" fill="#252a34"/>
  <rect x="1204" y="420" width="320" height="12" rx="2" fill="#252a34"/>
  <rect x="1204" y="448" width="360" height="12" rx="2" fill="#252a34"/>
  <rect x="1204" y="500" width="380" height="48" rx="6" fill="rgba(199,255,66,0.1)" stroke="rgba(199,255,66,0.3)"/>
  <text x="1220" y="530" font-family="ui-monospace,monospace" font-size="11" fill="#c7ff42">Evidence pack ready</text>
  <text x="48" y="700" font-family="ui-monospace,monospace" font-size="13" fill="#5c6478" letter-spacing="0.08em">PLACEHOLDER · AUDITPACK HERO</text>
</svg>
