<svg xmlns="http://www.w3.org/2000/svg" viewBox="0 0 640 400" fill="none" role="img" aria-label="AuditPack dashboard preview">
  <rect width="640" height="400" fill="#0e1014"/>
  <rect x="24" y="24" width="592" height="352" rx="8" fill="#14171c" stroke="rgba(255,255,255,0.08)"/>
  <rect x="24" y="24" width="120" height="352" rx="8" fill="#1c2028"/>
  <rect x="44" y="52" width="72" height="8" rx="2" fill="rgba(199,255,66,0.85)"/>
  <rect x="44" y="76" width="56" height="6" rx="2" fill="rgba(255,255,255,0.12)"/>
  <rect x="44" y="96" width="64" height="6" rx="2" fill="rgba(255,255,255,0.08)"/>
  <rect x="44" y="116" width="48" height="6" rx="2" fill="rgba(255,255,255,0.08)"/>
  <rect x="164" y="52" width="140" height="24" rx="4" fill="rgba(199,255,66,0.12)" stroke="rgba(199,255,66,0.35)"/>
  <text x="178" y="68" fill="#c7ff42" font-family="system-ui,sans-serif" font-size="11" font-weight="600">Gap score 87%</text>
  <rect x="164" y="92" width="220" height="120" rx="6" fill="#252a34" stroke="rgba(255,255,255,0.06)"/>
  <rect x="180" y="112" width="80" height="6" rx="2" fill="rgba(255,255,255,0.15)"/>
  <rect x="180" y="132" width="160" height="4" rx="2" fill="rgba(255,255,255,0.08)"/>
  <rect x="180" y="144" width="140" height="4" rx="2" fill="rgba(255,255,255,0.06)"/>
  <rect x="180" y="156" width="150" height="4" rx="2" fill="rgba(255,255,255,0.06)"/>
  <rect x="180" y="180" width="48" height="16" rx="3" fill="rgba(199,255,66,0.2)" stroke="rgba(199,255,66,0.4)"/>
  <rect x="400" y="92" width="192" height="120" rx="6" fill="#252a34" stroke="rgba(255,255,255,0.06)"/>
  <path d="M420 180 L440 150 L460 165 L480 130 L500 145 L520 110 L540 125 L560 95 L580 115" stroke="#c7ff42" stroke-width="2" fill="none" stroke-linecap="round"/>
  <rect x="164" y="228" width="428" height="132" rx="6" fill="#252a34" stroke="rgba(255,255,255,0.06)"/>
  <rect x="180" y="248" width="120" height="8" rx="2" fill="rgba(255,255,255,0.12)"/>
  <rect x="180" y="272" width="380" height="6" rx="2" fill="rgba(255,255,255,0.06)"/>
  <rect x="180" y="288" width="340" height="6" rx="2" fill="rgba(255,255,255,0.05)"/>
  <rect x="180" y="304" width="360" height="6" rx="2" fill="rgba(255,255,255,0.05)"/>
  <rect x="180" y="320" width="300" height="6" rx="2" fill="rgba(255,255,255,0.04)"/>
</svg>
