<svg xmlns="http://www.w3.org/2000/svg" viewBox="0 0 640 400" fill="none" role="img" aria-label="Platform architecture preview">
  <rect width="640" height="400" fill="#0e1014"/>
  <rect x="24" y="24" width="592" height="352" rx="8" fill="#14171c" stroke="rgba(255,255,255,0.08)"/>
  <rect x="260" y="72" width="120" height="56" rx="6" fill="#252a34" stroke="rgba(199,255,66,0.45)"/>
  <text x="278" y="105" fill="#c7ff42" font-family="system-ui,sans-serif" font-size="11" font-weight="600">FastAPI</text>
  <rect x="80" y="160" width="100" height="48" rx="6" fill="#1c2028" stroke="rgba(255,255,255,0.1)"/>
  <text x="96" y="190" fill="#c2c8d4" font-family="system-ui,sans-serif" font-size="10">Licensing</text>
  <rect x="270" y="160" width="100" height="48" rx="6" fill="#1c2028" stroke="rgba(255,255,255,0.1)"/>
  <text x="292" y="190" fill="#c2c8d4" font-family="system-ui,sans-serif" font-size="10">Portal</text>
  <rect x="460" y="160" width="100" height="48" rx="6" fill="#1c2028" stroke="rgba(255,255,255,0.1)"/>
  <text x="482" y="190" fill="#c2c8d4" font-family="system-ui,sans-serif" font-size="10">Workers</text>
  <rect x="160" y="280" width="120" height="48" rx="6" fill="#1c2028" stroke="rgba(255,255,255,0.1)"/>
  <text x="188" y="310" fill="#c2c8d4" font-family="system-ui,sans-serif" font-size="10">Store</text>
  <rect x="360" y="280" width="120" height="48" rx="6" fill="#1c2028" stroke="rgba(255,255,255,0.1)"/>
  <text x="396" y="310" fill="#c2c8d4" font-family="system-ui,sans-serif" font-size="10">Admin</text>
  <path d="M320 128 V160 M130 184 L260 100 M380 100 L510 184 M220 208 V280 M420 208 V280 M320 208 V280" stroke="rgba(199,255,66,0.35)" stroke-width="1.5" stroke-linecap="round"/>
  <circle cx="320" cy="128" r="3" fill="#c7ff42"/>
  <circle cx="130" cy="184" r="3" fill="#c7ff42"/>
  <circle cx="510" cy="184" r="3" fill="#c7ff42"/>
</svg>
